# Blender 4.5.3 LTS
# www.blender.org
mtllib crate_resized.mtl
o Wood_container1
v -4.150000 -4.150001 4.800000
v 4.150000 -4.150001 4.800000
v 4.150000 4.150000 4.800000
v -4.150000 4.150000 4.800000
v -4.150000 -4.150000 -4.800000
v -4.150000 4.150001 -4.800000
v 4.150000 4.150001 -4.800000
v 4.150000 -4.150000 -4.800000
v -4.150000 -4.800000 4.150000
v -4.150000 -4.800000 -4.150001
v 4.150000 -4.800000 -4.150001
v 4.150000 -4.800000 4.150000
v 4.800000 -4.150001 4.150000
v 4.800000 -4.150000 -4.150001
v 4.800000 4.150001 -4.150000
v 4.800000 4.150000 4.150001
v 4.150000 4.800000 4.150001
v 4.150000 4.800000 -4.150000
v -4.150000 4.800000 -4.150000
v -4.150000 4.800000 4.150001
v -4.800000 4.150000 4.150001
v -4.800000 4.150001 -4.150000
v -4.800000 -4.150000 -4.150001
v -4.800000 -4.150001 4.150000
v -5.000000 -5.000000 5.000000
v 5.000000 -5.000000 5.000000
v 4.150000 -4.150001 5.000000
v -4.150000 -4.150001 5.000000
v 5.000000 5.000000 5.000000
v 4.150000 4.150000 5.000000
v -5.000000 5.000000 5.000000
v -4.150000 4.150000 5.000000
v -5.000000 -5.000000 -5.000000
v -5.000000 5.000000 -5.000000
v -4.150000 4.150001 -5.000000
v -4.150000 -4.150000 -5.000000
v 5.000000 5.000000 -5.000000
v 4.150000 4.150001 -5.000000
v 5.000000 -5.000000 -5.000000
v 4.150000 -4.150000 -5.000000
v -4.150000 -5.000000 -4.150001
v -4.150000 -5.000000 4.150000
v 4.150000 -5.000000 -4.150001
v 4.150000 -5.000000 4.150000
v 5.000000 -4.150000 -4.150001
v 5.000000 -4.150001 4.150000
v 5.000000 4.150001 -4.150000
v 5.000000 4.150000 4.150001
v 4.150000 5.000000 -4.150000
v 4.150000 5.000000 4.150001
v -4.150000 5.000000 -4.150000
v -4.150000 5.000000 4.150001
v -5.000000 4.150001 -4.150000
v -5.000000 4.150000 4.150001
v -5.000000 -4.150000 -4.150001
v -5.000000 -4.150001 4.150000
v -5.000000 5.000000 5.000000
v -5.000000 5.000000 5.000000
v -5.000000 5.000000 5.000000
v -5.000000 5.000000 5.000000
v -5.000000 5.000000 5.000000
v -4.150000 5.000000 4.150001
v -4.150000 5.000000 4.150001
v -4.150000 5.000000 4.150001
v -5.000000 5.000000 -5.000000
v -5.000000 5.000000 -5.000000
v -5.000000 5.000000 -5.000000
v -5.000000 5.000000 -5.000000
v -5.000000 5.000000 -5.000000
v -4.150000 5.000000 -4.150000
v -4.150000 5.000000 -4.150000
v -4.150000 5.000000 -4.150000
v 4.150000 5.000000 -4.150000
v 4.150000 5.000000 -4.150000
v 4.150000 5.000000 -4.150000
v 4.150000 5.000000 4.150001
v 4.150000 5.000000 4.150001
v 4.150000 5.000000 4.150001
v 4.150000 -5.000000 -4.150001
v 4.150000 -5.000000 -4.150001
v 4.150000 -5.000000 -4.150001
v 4.150000 -5.000000 4.150000
v 4.150000 -5.000000 4.150000
v 4.150000 -5.000000 4.150000
v 4.150000 4.800000 -4.150000
v 4.150000 4.800000 -4.150000
v -4.150000 4.800000 -4.150000
v -4.150000 4.800000 -4.150000
v -5.000000 -5.000000 5.000000
v -5.000000 -5.000000 5.000000
v -5.000000 -5.000000 5.000000
v -5.000000 -5.000000 5.000000
v -5.000000 -5.000000 5.000000
v -4.150000 -5.000000 4.150000
v -4.150000 -5.000000 4.150000
v -4.150000 -5.000000 4.150000
v -4.800000 4.150001 -4.150000
v -4.800000 4.150001 -4.150000
v -5.000000 4.150001 -4.150000
v -5.000000 4.150001 -4.150000
v -5.000000 4.150001 -4.150000
v -4.150000 -4.150000 -4.800000
v -4.150000 -4.150000 -4.800000
v -4.150000 -4.150000 -5.000000
v -4.150000 -4.150000 -5.000000
v -4.150000 -4.150000 -5.000000
v 5.000000 -5.000000 -5.000000
v 5.000000 -5.000000 -5.000000
v 5.000000 -5.000000 -5.000000
v 5.000000 -5.000000 -5.000000
v 5.000000 -5.000000 -5.000000
v 4.150000 -4.150000 -5.000000
v 4.150000 -4.150000 -5.000000
v 4.150000 -4.150000 -5.000000
v 4.150000 4.150000 5.000000
v 4.150000 4.150000 5.000000
v 4.150000 4.150000 5.000000
v -4.150000 4.150000 5.000000
v -4.150000 4.150000 5.000000
v -4.150000 4.150000 5.000000
v -4.800000 -4.150000 -4.150001
v -4.800000 -4.150000 -4.150001
v -4.150000 4.800000 4.150001
v -4.150000 4.800000 4.150001
v 5.000000 5.000000 -5.000000
v 5.000000 5.000000 -5.000000
v 5.000000 5.000000 -5.000000
v 5.000000 5.000000 -5.000000
v 5.000000 5.000000 -5.000000
v 4.150000 4.150001 -5.000000
v 4.150000 4.150001 -5.000000
v 4.150000 4.150001 -5.000000
v 4.800000 4.150000 4.150001
v 4.800000 4.150000 4.150001
v 5.000000 4.150000 4.150001
v 5.000000 4.150000 4.150001
v 5.000000 4.150000 4.150001
v 4.150000 -4.150000 -4.800000
v 4.150000 -4.150000 -4.800000
v 5.000000 -4.150000 -4.150001
v 5.000000 -4.150000 -4.150001
v 5.000000 -4.150000 -4.150001
v 5.000000 -4.150001 4.150000
v 5.000000 -4.150001 4.150000
v 5.000000 -4.150001 4.150000
v -4.150000 -5.000000 -4.150001
v -4.150000 -5.000000 -4.150001
v -4.150000 -5.000000 -4.150001
v 4.800000 -4.150001 4.150000
v 4.800000 -4.150001 4.150000
v 4.150000 -4.150001 5.000000
v 4.150000 -4.150001 5.000000
v 4.150000 -4.150001 5.000000
v 4.800000 4.150001 -4.150000
v 4.800000 4.150001 -4.150000
v 5.000000 4.150001 -4.150000
v 5.000000 4.150001 -4.150000
v 5.000000 4.150001 -4.150000
v -4.150000 -4.800000 4.150000
v -4.150000 -4.800000 4.150000
v -4.150000 4.150001 -4.800000
v -4.150000 4.150001 -4.800000
v -5.000000 -4.150000 -4.150001
v -5.000000 -4.150000 -4.150001
v -5.000000 -4.150000 -4.150001
v -4.150000 4.150001 -5.000000
v -4.150000 4.150001 -5.000000
v -4.150000 4.150001 -5.000000
v -4.150000 -4.800000 -4.150001
v -4.150000 -4.800000 -4.150001
v -4.800000 4.150000 4.150001
v -4.800000 4.150000 4.150001
v -4.800000 -4.150001 4.150000
v -4.800000 -4.150001 4.150000
v 5.000000 -5.000000 5.000000
v 5.000000 -5.000000 5.000000
v 5.000000 -5.000000 5.000000
v 5.000000 -5.000000 5.000000
v 5.000000 -5.000000 5.000000
v -5.000000 -5.000000 -5.000000
v -5.000000 -5.000000 -5.000000
v -5.000000 -5.000000 -5.000000
v -5.000000 -5.000000 -5.000000
v -5.000000 -5.000000 -5.000000
v 4.150000 4.150001 -4.800000
v 4.150000 4.150001 -4.800000
v 4.150000 4.150000 4.800000
v 4.150000 4.150000 4.800000
v -5.000000 4.150000 4.150001
v -5.000000 4.150000 4.150001
v -5.000000 4.150000 4.150001
v -4.150000 -4.150001 5.000000
v -4.150000 -4.150001 5.000000
v -4.150000 -4.150001 5.000000
v 4.800000 -4.150000 -4.150001
v 4.800000 -4.150000 -4.150001
v 4.150000 4.800000 4.150001
v 4.150000 4.800000 4.150001
v -4.150000 -4.150001 4.800000
v -4.150000 -4.150001 4.800000
v -4.150000 4.150000 4.800000
v -4.150000 4.150000 4.800000
v 5.000000 5.000000 5.000000
v 5.000000 5.000000 5.000000
v 5.000000 5.000000 5.000000
v 5.000000 5.000000 5.000000
v 5.000000 5.000000 5.000000
v 4.150000 -4.800000 -4.150001
v 4.150000 -4.800000 -4.150001
v -5.000000 -4.150001 4.150000
v -5.000000 -4.150001 4.150000
v -5.000000 -4.150001 4.150000
v 4.150000 -4.150001 4.800000
v 4.150000 -4.150001 4.800000
v 4.150000 -4.800000 4.150000
v 4.150000 -4.800000 4.150000
vn -0.0000 -0.0000 1.0000
vn -0.0000 -0.0000 -1.0000
vn -0.0000 -1.0000 -0.0000
vn 1.0000 -0.0000 -0.0000
vn -0.0000 1.0000 -0.0000
vn -1.0000 -0.0000 -0.0000
vt 0.056200 0.549000
vt 0.454300 0.549000
vt 0.454300 0.947100
vt 0.056200 0.947100
vt 0.947600 0.452400
vt 0.947600 0.058200
vt 0.553400 0.058200
vt 0.553400 0.550900
vt 0.947700 0.550900
vt 0.947700 0.945200
vt 0.058100 0.452400
vt 0.058100 0.058200
vt 0.452300 0.058200
vt 0.553400 0.945200
vt 0.013000 0.505800
vt 0.497500 0.505800
vt 0.456300 0.547000
vt 0.497500 0.990300
vt 0.456300 0.949100
vt 0.013000 0.990300
vt 0.054200 0.949100
vt 0.054200 0.547000
vt 0.992800 0.497600
vt 0.992800 0.013100
vt 0.951600 0.456400
vt 0.508300 0.013100
vt 0.549400 0.054200
vt 0.508300 0.497600
vt 0.508300 0.505800
vt 0.992800 0.505800
vt 0.951600 0.547000
vt 0.992800 0.990300
vt 0.951600 0.949100
vt 0.508300 0.990300
vt 0.549500 0.949100
vt 0.549500 0.547000
vt 0.012900 0.497600
vt 0.012900 0.013100
vt 0.054100 0.456400
vt 0.497400 0.013100
vt 0.456300 0.054200
vt 0.497400 0.497600
vt 0.489900 0.528500
vt 0.014400 0.528500
vt 0.014400 0.510300
vt 0.489900 0.510300
vt 0.489900 0.528600
vt 0.014400 0.528600
vt 0.014400 0.510400
vt 0.489900 0.510400
vt 0.553400 0.452400
vt 0.452300 0.452400
vt 0.951600 0.054200
vt 0.549400 0.456400
vt 0.054100 0.054200
vt 0.456300 0.456400
s 1
f 1/1/1 2/2/1 187/3/1
f 102/2/2 6/3/2 7/4/2
f 159/5/3 169/6/3 208/7/3
f 13/8/4 195/9/4 154/10/4
f 17/11/5 18/12/5 19/13/5
f 21/14/6 97/10/6 24/8/6
f 90/15/1 175/16/1 151/17/1
f 177/16/1 204/18/1 115/19/1
f 205/18/1 59/20/1 32/21/1
f 57/20/1 89/15/1 28/22/1
f 33/16/2 65/18/2 105/17/2
f 67/18/2 37/20/2 38/21/2
f 125/20/2 39/15/2 131/21/2
f 108/15/2 180/16/2 104/17/2
f 25/23/3 181/24/3 42/25/3
f 183/24/3 110/26/3 79/27/3
f 109/26/3 26/28/3 43/27/3
f 178/28/3 92/23/3 94/25/3
f 176/29/4 107/30/4 45/31/4
f 111/30/4 126/32/4 156/33/4
f 128/32/4 203/34/4 135/35/4
f 207/34/4 179/29/4 144/36/4
f 29/37/5 127/38/5 50/39/5
f 129/38/5 34/40/5 51/41/5
f 66/40/5 31/42/5 71/41/5
f 60/42/5 206/37/5 76/39/5
f 58/34/6 68/32/6 189/35/6
f 69/32/6 182/30/6 100/33/6
f 184/30/6 91/29/6 164/31/6
f 93/29/6 61/34/6 211/36/6
f 213/43/5 199/44/5 193/45/5
f 153/45/6 116/46/6 214/44/6
f 117/45/3 119/46/3 201/43/3
f 200/43/4 202/44/4 120/45/4
f 36/47/4 167/48/4 161/49/4
f 168/43/3 130/44/3 185/49/3
f 132/47/6 112/48/6 186/50/6
f 114/47/5 106/48/5 103/49/5
f 95/47/4 146/48/4 10/49/4
f 148/43/1 80/44/1 11/45/1
f 81/49/6 83/50/6 209/48/6
f 84/49/2 96/50/2 160/47/2
f 143/43/5 140/44/5 14/45/5
f 142/49/1 47/50/1 15/47/1
f 158/49/3 48/50/3 16/47/3
f 137/49/2 145/50/2 150/47/2
f 77/43/6 73/44/6 197/46/6
f 75/49/1 70/50/1 87/47/1
f 72/49/4 62/50/4 20/47/4
f 64/47/2 78/48/2 198/49/2
f 54/47/3 53/48/3 22/49/3
f 101/47/1 55/48/1 121/49/1
f 165/49/5 210/50/5 173/47/5
f 212/43/2 191/44/2 172/49/2
f 4/4/1 1/1/1 187/3/1
f 138/1/2 102/2/2 7/4/2
f 12/51/3 159/5/3 208/7/3
f 133/14/4 13/8/4 154/10/4
f 123/52/5 17/11/5 19/13/5
f 97/10/6 23/9/6 24/8/6
f 192/22/1 90/15/1 151/17/1
f 27/17/1 177/16/1 115/19/1
f 30/19/1 205/18/1 32/21/1
f 118/21/1 57/20/1 28/22/1
f 65/18/2 166/19/2 105/17/2
f 35/19/2 67/18/2 38/21/2
f 39/15/2 40/22/2 131/21/2
f 113/22/2 108/15/2 104/17/2
f 181/24/3 147/53/3 42/25/3
f 41/53/3 183/24/3 79/27/3
f 26/28/3 44/54/3 43/27/3
f 82/54/3 178/28/3 94/25/3
f 46/36/4 176/29/4 45/31/4
f 141/31/4 111/30/4 156/33/4
f 157/33/4 128/32/4 135/35/4
f 136/35/4 207/34/4 144/36/4
f 127/38/5 49/55/5 50/39/5
f 74/55/5 129/38/5 51/41/5
f 31/42/5 52/56/5 71/41/5
f 63/56/5 60/42/5 76/39/5
f 68/32/6 99/33/6 189/35/6
f 182/30/6 163/31/6 100/33/6
f 91/29/6 56/36/6 164/31/6
f 61/34/6 190/35/6 211/36/6
f 152/46/5 213/43/5 193/45/5
f 116/46/6 3/43/6 214/44/6
f 188/44/3 117/45/3 201/43/3
f 194/46/4 200/43/4 120/45/4
f 5/50/4 36/47/4 161/49/4
f 162/50/3 168/43/3 185/49/3
f 112/48/6 8/49/6 186/50/6
f 139/50/5 114/47/5 103/49/5
f 9/50/4 95/47/4 10/49/4
f 170/46/1 148/43/1 11/45/1
f 83/50/6 215/47/6 209/48/6
f 216/48/2 84/49/2 160/47/2
f 149/46/5 143/43/5 14/45/5
f 196/48/1 142/49/1 15/47/1
f 155/48/3 158/49/3 16/47/3
f 134/48/2 137/49/2 150/47/2
f 73/44/6 85/45/6 197/46/6
f 86/48/1 75/49/1 87/47/1
f 88/48/4 72/49/4 20/47/4
f 124/50/2 64/47/2 198/49/2
f 171/50/3 54/47/3 22/49/3
f 98/50/1 101/47/1 121/49/1
f 122/48/5 165/49/5 173/47/5
f 174/50/2 212/43/2 172/49/2
